<?xml version="1.0" encoding="utf-8"?>
<!-- Generator: Adobe Illustrator 24.0.0, SVG Export Plug-In . SVG Version: 6.00 Build 0)  -->
<svg version="1.1" id="Capa_1" xmlns="http://www.w3.org/2000/svg" xmlns:xlink="http://www.w3.org/1999/xlink" x="0px" y="0px"
	 viewBox="0 0 22.7 18.4" style="enable-background:new 0 0 22.7 18.4;" xml:space="preserve">
<style type="text/css">
	.st0{fill:#FFFFFF;}
</style>
<path class="st0" d="M20.3,16.3h-18V2.2h18V16.3z M20.3,0.2h-18c-1.1,0-2,0.9-2,2v14c0,1.1,0.9,2,2,2h18c1.1,0,2-0.9,2-2v-14
	C22.3,1.1,21.4,0.2,20.3,0.2z"/>
<path class="st0" d="M20.3,16.3h-18V2.2h18V16.3z M20.3,0.2h-18c-1.1,0-2,0.9-2,2v14c0,1.1,0.9,2,2,2h18c1.1,0,2-0.9,2-2v-14
	C22.3,1.1,21.4,0.2,20.3,0.2z"/>
<path class="st0" d="M13.9,5.2l-2.6,2.6L8.7,5.2L7.3,6.6l2.6,2.6l-2.6,2.6l1.4,1.4l2.6-2.6l2.6,2.6l1.4-1.4l-2.6-2.6l2.6-2.6
	L13.9,5.2z"/>
</svg>
